**ABCDEFGHIJKLMNOPQRSTUVWXYZabcdefghijklmnopqrstuvwxyz**************************
**PARASOLID !"#$%&'()*+,-./:;<=>?@[\]^_`{|}~0123456789**************************
**PART1;
;
;
FRU=C3D Kernel;
APPL=C3D-based application;
FORMAT=text;
GUISE=transmit;
KEY=ugolok 22;
FILE=ugolok 22.x_t;
DATE=Thu Aug  7 20:15:30 2025;
**PART2;
SCH=SCH_3000119_30000;
USFLD_SIZE=0;
**PART3;
**END_OF_HEADER*****************************************************************
T51 : TRANSMIT FILE created by modeller version 300011923 SCH_3000119_30000_1300
6194 0 10 19 CCCCCCCI4 mesh1006 0 I8 polyline1008 0 CCCCCCCCCCZ1 4 10 5 0 0 0 0
 0 0 0 1000 1E-8 0 0 0 1 0 1 2 11 255 2 1 4 1 3 9 1 0 0 0 0 12 33 CCCCCCI4 mesh1
006 0 I8 polyline1008 0 CCCCCCCDI5 owner1040 0 CCCCCCI13 boundary_mesh1006 0 I17
 boundary_polyline1008 0 CCCA16 index_map_offset0 0 1 dA9 index_map82 0 A17 node
_id_index_map82 0 A20 schema_embedding_map82 0 A5 child12 0 A14 lowest_node_id0
 0 1 dZ3 385 12 13 0 0 0 0 0 0 1000 1E-8 2 0 0 1 0 1 1 16 30 53 70 0 0 19 51 50
 0 0 0 0 0 0 81 255 1 4 2 7 2 0 0 10 0 8 70 11 CI9 list_type0 0 1 uI10 notransmi
t0 0 1 lCCCDCCDI12 finger_index0 0 1 dI12 finger_block1012 0 CZ5 0 4 T1 0 0 1 20
 1 6 6 74 4 CI16 index_map_offset0 0 1 dCCZ20 6 1 0 0 4 0 0 0 0 0 0 0 0 0 0 0 0
 0 0 0 0 0 0 0 80 255 1 7 0 17 8017 0 0 0 0 0 0 0 0 0 TTTTTTTTTTTTTF3 84 255 0 8
 100 255 9 3 2 0 0 -2.22044604925031E-16 -1 0 -1 2.22044604925031E-16 0 0 0 -1 .
0285 -.0335 .058 1 3 ?81 1 10 4 7 1 0 0 0 4 11 84 6 11 —борка81 1 12 1 7 3 0 0 0
 0 15 70 13 0 4 T3 0 0 3 20 1 14 14 74 20 14 3 0 0 12 22 25 0 0 0 0 0 0 0 0 0 0
 0 0 0 0 0 0 0 84 0 15 13 255 16 2 0 3 0 21 0 0 20 0 79 255 13 17 SDL/TYSA_NAME1
3 18 3 0 0 0 0 0 0 19 21 19 8 CCCCCCCA5 owner12 0 Z19 4 0 3 20 0 18 V0 19 20 5 0
 3 0 19 16 S0 14 255 21 6 22 ?28 0 29 16 30 +0 0 28 0 18 81 1 22 7 23 21 25 0 33
 0 24 80 1 23 0 31 8001 0 0 0 0 3 5 0 0 0 FFFFTFTFFFFFFF2 83 255 3 24 .564705882
352941 .564705882352941 .564705882352941 81 1 25 8 26 21 0 22 35 0 27 80 1 26 0
 32 8015 0 0 0 0 3 5 0 0 0 FFFFTFFFFFFFFF2 83 1 27 0 14 28 9 33 ?37 21 38 16 39
 -0 0 37 21 18 15 255 29 12 0 40 21 0 50 255 30 13 0 21 39 0 0 +-.01 -1.32933972
742327E-5 -.099 -1.22471476554999E-16 -.999999993068071 -.000117744882037955 0 .
000117744882037955 -.999999993068071 79 15 31 SDL/TYSA_COLOUR79 21 32 SDL/TYSA_T
RANSLUCENCY81 1 33 10 23 28 35 0 41 22 34 83 3 34 .564705882352941 .564705882352
941 .564705882352941 81 1 35 11 26 28 0 33 43 25 36 83 1 36 0 14 37 14 41 ?45 28
 46 16 47 -0 0 45 28 18 15 38 17 0 48 28 0 50 39 18 0 28 52 30 0 +-6.12323399573
677E-20 -.0005 0 -.707106781186548 -.707106781186547 0 -.707106781186547 .707106
781186548 0 17 255 40 0 29 49 66 50 417 51 0 61 -81 1 41 15 23 37 43 0 54 33 42
 83 3 42 .564705882352941 .564705882352941 .564705882352941 81 1 43 16 26 37 0 4
1 56 35 44 83 1 44 0 14 45 22 54 ?58 37 59 16 60 -0 0 58 37 18 15 46 25 0 61 37
 0 50 47 26 0 37 60 52 0 +-.0085 2.15472880489049E-18 0 1 0 0 0 -1 0 17 48 0 38
 62 141 63 125 64 0 98 -17 49 0 29 66 40 67 61 68 0 122 -18 255 50 32 0 40 0 63
 70 ?3 16 255 51 19 0 ?417 0 64 53 0 0 3 50 52 20 0 75 47 39 0 +-.01 -.01 -.0990
562076270969 9.99761236919026E-19 .00562815541755999 -.999984161807874 1.7786931
9264322E-16 .999984161807874 .00562815541755999 30 255 53 21 0 51 65 0 0 +-.0085
 -1.32933972742342E-5 -.099 1 -1.77730666177955E-16 0 81 1 54 23 23 45 56 0 71 4
1 55 83 3 55 .564705882352941 .564705882352941 .564705882352941 81 1 56 24 26 45
 0 54 73 43 57 83 1 57 0 14 58 33 71 ?75 45 76 16 77 +0 0 75 45 18 15 59 36 0 78
 45 79 50 60 28 0 45 84 47 0 +-.0005 6.12323399573677E-20 0 -2.6168705811664E-16
 -1 0 -1 2.6168705811664E-16 0 17 61 0 46 80 201 50 49 68 0 396 +17 62 0 38 81 4
8 82 395 83 0 151 -18 63 40 0 48 50 67 86 ?3 16 64 27 0 ?125 51 68 65 0 0 3 30 6
5 29 0 64 69 53 0 +-.0005 1.11022302462516E-19 0 -1.12143721212764E-18 0 -1 17 6
6 0 29 40 49 87 122 88 0 97 -18 67 44 0 49 63 82 90 ?3 16 68 30 0 ?61 64 83 69 0
 0 3 30 69 31 0 68 85 65 0 +-.0085 -1.32921177078176E-5 -.0990108672783417 0 -.0
00117744882037965 .999999993068071 29 255 70 45 0 50 86 0 -.0085 -1.329339727423
36E-5 -.099 81 1 71 34 23 58 73 0 91 54 72 83 3 72 .564705882352941 .56470588235
2941 .564705882352941 81 1 73 35 26 58 0 71 93 56 74 83 1 74 0 14 75 46 91 ?95 5
8 96 16 52 +0 0 95 58 18 15 76 49 0 97 58 0 50 77 42 0 58 111 84 0 +-.0085593350
4633066 .00998670782244755 -.0990097702971184 .00135615506445805 .00011774477376
1444 -.999999073489376 .999999080421298 -1.59680318218838E-7 .00135615505505728
 17 78 0 59 98 159 99 168 100 0 135 -15 79 52 0 102 45 103 17 80 0 46 104 61 105
 396 106 0 282 +17 81 0 38 108 62 109 151 110 0 255 +18 82 58 0 62 67 87 113 ?3
 16 83 37 0 ?395 68 88 85 0 0 3 50 84 38 0 119 77 60 0 +0 0 0 0 0 1 -1 1.2246467
9914735E-16 0 30 85 39 0 83 89 69 0 +-6.12323399573677E-20 -.0005 0 -.7071067811
86547 .707106781186548 0 29 86 59 0 63 90 70 -.0005 9.399054659311E-20 0 18 87 6
0 0 66 82 99 114 ?3 16 88 41 0 ?122 83 100 89 0 0 3 30 89 43 0 88 101 85 0 +-.00
0486706602725764 -1.32933972742339E-5 -.099 -.999999080421298 1.59680318212378E-
7 -.00135615505505775 29 90 61 0 67 113 86 -.0085 -1.32921177078176E-5 -.0990108
672783417 81 1 91 47 23 75 93 0 115 71 92 83 3 92 .564705882352941 .564705882352
941 .564705882352941 81 1 93 48 26 75 0 91 117 73 94 83 1 94 0 14 95 62 115 ?119
 75 120 16 111 -0 0 119 75 18 15 96 65 0 121 75 0 17 97 0 76 122 188 87 141 123
 0 108 -17 98 0 59 125 78 63 416 126 0 395 -18 99 70 0 78 87 105 128 ?3 16 100 5
0 0 ?168 88 106 101 0 0 3 30 101 51 0 100 107 89 0 +-.0085 2.15472880489049E-18
 0 0 0 -1 17 102 0 79 102 102 129 242 130 0 242 +15 103 74 0 133 45 134 17 104 0
 46 135 80 136 282 137 0 244 -18 105 78 0 80 99 109 140 ?3 16 106 53 0 ?80 100 1
10 107 0 0 3 30 107 54 0 106 112 101 0 +-.0085 -1.32933972742324E-5 -.099 0 -.99
9984161807874 -.00562815541756758 17 108 0 38 141 81 87 444 142 0 417 +18 109 81
 0 81 105 129 144 ?3 16 110 55 0 ?81 106 123 112 0 0 3 50 111 56 0 95 131 77 0 +
-1.04094977927525E-18 -.0085 0 -1 1.22464679914735E-16 0 1.22464679914735E-16 1
 0 30 112 57 0 110 124 107 0 +-6.12323399573676E-20 -.0005 0 0 0 -1 29 113 82 0
 82 114 90 -6.12323399573677E-20 -.0005 0 29 114 83 0 87 128 113 -.0004867066027
25764 -1.32933972742348E-5 -.099 81 1 115 63 23 95 117 0 145 91 116 83 3 116 .56
4705882352941 .564705882352941 .564705882352941 81 1 117 64 26 95 0 115 147 93 1
18 83 1 118 0 14 119 84 145 ?149 95 150 16 84 +0 0 149 95 18 15 120 87 0 151 95
 152 17 121 0 96 153 462 154 591 155 0 572 -17 122 0 76 158 97 67 66 88 0 201 +1
6 123 66 0 ?141 110 126 124 0 0 3 30 124 67 0 123 127 112 0 +-.00048670660272576
6 -1.32933972742341E-5 -.099 -.707106510070847 .707106510070844 -.00087568879039
6997 17 125 0 59 159 98 160 48 64 0 141 +16 126 68 0 ?416 123 130 127 0 0 3 30 1
27 69 0 126 132 124 0 +-.0005 6.12323399573677E-20 0 -1 2.6168705811664E-16 0 29
 128 91 0 99 140 114 -.0085 2.15472880489049E-18 0 18 129 92 0 102 109 136 161 ?
3 16 130 71 0 ?102 126 137 132 0 0 3 51 255 131 72 0 176 138 111 0 --.0060005320
0000001 -.01 -.0153 -2.6168705811664E-16 -1 0 .0016 6.12323399573677E-17 -1.6023
7109050415E-32 1 31 255 132 73 0 130 139 127 0 +-.00600053200000001 1.5006503771
1381E-18 -.0153 -2.6168705811664E-16 -1 0 6.12323399573677E-17 -1.60237109050415
E-32 1 .0016 17 133 0 103 133 133 162 323 163 0 323 +15 134 96 0 166 45 167 17 1
35 0 46 168 104 99 443 169 0 416 -18 136 99 0 104 129 154 171 ?3 16 137 75 0 ?28
2 130 142 139 0 0 3 50 138 76 0 149 156 131 0 +-.0085 -.000799999999999998 0 -1.
48029736616688E-16 -1 0 -1 1.48029736616688E-16 0 30 139 77 0 137 143 132 0 +-.0
085 -.000799999999999998 0 0 0 -1 29 140 100 0 105 144 128 -.0085 -.000799999999
999998 -.0990044277771561 17 141 0 38 48 108 160 97 123 0 188 +16 142 79 0 ?108
 137 155 143 0 0 3 30 143 80 0 142 157 139 0 +-7.67773946365067E-19 -.0004999999
99999999 -.0990027393037885 -.707101181473504 .707101181473504 .0039797383771182
4 29 144 101 0 109 161 140 -6.12323399573676E-20 -.0005 -.0990027393037885 81 1
 145 85 23 119 147 0 172 115 146 83 3 146 .564705882352941 .564705882352941 .564
705882352941 81 1 147 86 26 119 0 145 174 117 148 83 1 148 0 14 149 102 172 ?176
 119 177 16 138 -0 0 176 119 18 15 150 105 0 178 119 0 17 151 0 120 179 255 82 8
1 110 0 361 -15 152 106 0 180 95 181 17 153 0 96 182 121 183 573 184 0 552 -18 1
54 110 0 121 136 160 187 ?3 16 155 88 0 ?591 142 163 157 0 0 3 50 156 89 0 467 1
64 138 0 +-.000800000000000001 -.0085 0 -2.22044604925031E-15 1 0 1 2.2204460492
5031E-15 0 30 157 90 0 155 165 143 0 +-.000800000000000001 -.0085 -.099047765260
2587 1 2.22044604925032E-15 0 17 158 0 76 188 122 189 201 190 0 159 -17 159 0 59
 78 125 189 188 192 0 168 +18 160 115 0 125 154 162 194 ?3 29 161 116 0 129 171
 144 -.00600053200000001 1.50065037711381E-18 -.0137 18 162 117 0 133 160 183 19
5 ?3 16 163 93 0 ?133 155 169 165 0 0 3 51 164 94 0 206 185 156 388 --.005 -.01
 -.0034 -2.6168705811664E-16 -1 0 .0016 6.12323399573677E-17 -1.60237109050415E-
32 1 31 165 95 0 163 170 157 0 +-.005 1.23882410148225E-18 -.0034 -2.61687058116
64E-16 -1 0 6.12323399573677E-17 -1.60237109050415E-32 1 .0016 17 166 0 134 166
 166 196 316 197 0 316 +15 167 121 0 200 45 0 17 168 0 46 201 135 189 78 100 0 0
 +16 169 97 0 ?443 163 184 170 0 0 3 30 170 98 0 169 186 165 0 +-.0085 2.1547288
0489049E-18 0 0 -1 0 29 171 122 0 136 187 161 -.0085 -.000799999999999998 0 81 1
 172 103 23 149 174 0 202 145 173 83 3 173 .564705882352941 .564705882352941 .56
4705882352941 81 1 174 104 26 149 0 172 204 147 175 83 1 175 0 14 176 123 202 ?2
06 149 207 16 131 +0 0 206 149 18 15 177 126 0 208 149 0 17 178 0 150 209 510 21
0 560 211 0 470 +17 179 0 120 214 151 215 361 216 0 328 -17 180 0 152 180 180 21
8 549 219 0 549 +15 181 135 0 222 95 223 17 182 0 96 224 153 225 553 226 0 521 -
18 183 139 0 153 162 189 229 ?3 16 184 107 0 ?573 169 190 186 0 0 3 50 185 108 0
 449 198 164 0 +-.000800000000000001 -.01 0 -1 1.48029736616687E-16 0 1.48029736
616687E-16 1 0 30 186 109 0 184 191 170 0 +-.000800000000000001 -.01 -.099056207
6270969 1.48027392093279E-16 .999984161807874 .00562815541755965 29 187 140 0 15
4 194 171 -.000800000000000001 -.0085 -.0990477652602587 17 188 0 76 97 158 160
 159 192 0 0 -18 189 141 0 158 183 196 230 ?3 16 190 111 0 ?201 184 192 191 0 0
 3 30 191 112 0 190 193 186 0 +-.0085 1.77635683940025E-18 -.0990108657132629 0
 -.999999993068071 -.000117744882382124 16 192 113 0 ?159 190 197 193 0 0 3 30 1
93 114 0 192 199 191 0 +-.000499999999999999 6.12323399573675E-20 -.099000016462
6952 -.999999080421285 2.61686817474792E-16 -.00135615507385783 29 194 142 0 160
 195 187 -.0005 8.61273212099417E-20 -.0990000164626952 29 195 143 0 162 229 194
 -.005 1.23882410148225E-18 -.0018 18 196 144 0 166 189 210 231 ?3 16 197 118 0
 ?166 192 211 199 0 0 3 51 198 119 0 240 212 185 0 --.00600053200000002 -.01 -.0
8050097 -2.6168705811664E-16 -1 0 .0016 6.12323399573677E-17 -1.60237109050415E-
32 1 31 199 120 0 197 213 193 0 +-.00600053200000001 1.50065037711381E-18 -.0805
0097 -2.6168705811664E-16 -1 0 6.12323399573677E-17 -1.60237109050415E-32 1 .001
6 17 200 0 167 200 200 232 381 233 0 381 +17 201 0 46 61 168 67 158 190 0 0 +81
 1 202 124 23 176 204 0 236 172 203 83 3 203 .564705882352941 .564705882352941 .
564705882352941 81 1 204 125 26 176 0 202 238 174 205 83 1 205 0 14 206 148 236
 ?240 176 241 16 164 +0 0 240 176 18 15 207 151 0 242 176 243 17 208 0 177 244 3
27 245 430 246 0 405 -17 209 0 150 249 178 250 470 251 0 451 +18 210 158 0 178 1
96 215 254 ?3 16 211 127 0 ?178 197 216 213 0 0 3 51 212 128 0 374 220 198 534 +
-.004 -.004 0 0 0 -1 .002 3.44509284839767E-16 1 0 31 213 129 0 211 217 199 0 +-
.004 -.004 0 0 0 -1 2.22044604925031E-16 1 0 .002 17 214 0 120 255 179 256 517 2
57 0 462 +18 215 161 0 179 210 218 259 ?3 16 216 130 0 ?361 211 219 217 0 0 3 30
 217 131 0 216 221 213 0 +-1.04094977927525E-18 -.0085 0 1.22464679914735E-16 1
 0 18 218 162 0 180 215 225 260 ?3 16 219 132 0 ?180 216 226 221 0 0 3 51 220 13
3 0 491 227 212 479 --.01 -.00499999999999999 -.0901 -1 1.22464679914735E-16 0 .
0016 -1.49975978266186E-32 -1.22464679914735E-16 1 31 221 134 0 219 228 217 0 +-
6.12323399573675E-19 -.00499999999999999 -.0901 -1 1.22464679914735E-16 0 -1.499
75978266186E-32 -1.22464679914735E-16 1 .0016 17 222 0 181 222 222 261 569 262 0
 569 +15 223 166 0 265 95 266 17 224 0 96 267 182 268 613 269 0 610 -18 225 169
 0 182 218 232 271 ?3 16 226 136 0 ?553 219 233 228 0 0 3 50 227 137 0 422 234 2
20 0 +-.002 -.01 0 5.92118946466751E-15 1 0 1 -5.92118946466751E-15 0 30 228 138
 0 226 235 221 0 +-.002 -.01 -.0990562076270969 1 -5.92118946466751E-15 0 29 229
 170 0 183 230 195 -.000800000000000001 -.01 -.0990562076270969 29 230 171 0 189
 231 229 -.0085 2.15472880489049E-18 -.0990108657132629 29 231 172 0 196 254 230
 -.00600053200000001 1.50065037711381E-18 -.07890097 18 232 173 0 200 225 245 27
2 ?3 16 233 145 0 ?200 226 246 235 0 0 3 51 234 146 0 277 247 227 437 --.0050000
0000000001 -.01 -.095 -2.6168705811664E-16 -1 0 .0016 6.12323399573677E-17 -1.60
237109050415E-32 1 31 235 147 0 233 248 228 0 +-.00500000000000001 1.23882410148
225E-18 -.095 -2.6168705811664E-16 -1 0 6.12323399573677E-17 -1.60237109050415E-
32 1 .0016 81 1 236 149 23 206 238 0 273 202 237 83 3 237 .564705882352941 .5647
05882352941 .564705882352941 81 1 238 150 26 206 0 236 275 204 239 83 1 239 0 14
 240 174 273 ?277 206 278 16 198 +0 0 277 206 18 15 241 177 0 279 206 280 17 242
 0 207 242 242 129 102 130 0 0 -15 243 178 0 281 176 0 17 244 0 177 282 208 136
 461 283 0 443 -18 245 181 0 208 232 250 285 ?3 16 246 152 0 ?430 233 251 248 0
 0 3 50 247 153 0 314 252 234 0 +-.01 -.000799999999999998 0 1 0 0 0 -1 0 30 248
 154 0 246 253 235 0 +-.01 -.000799999999999998 0 0 0 -1 17 249 0 150 286 209 28
7 494 288 0 469 +18 250 184 0 209 245 256 290 ?3 16 251 155 0 ?209 246 257 253 0
 0 3 50 252 156 0 401 263 247 0 +-.002 -.004 0 1 -1.48029736616688E-16 0 -1.4802
9736616688E-16 -1 0 30 253 157 0 251 258 248 0 +-.002 -.004 0 -1.48029736616688E
-16 -1 0 29 254 185 0 210 259 231 -.002 -.004 0 17 255 0 120 151 214 109 462 291
 0 444 +18 256 188 0 214 250 261 293 ?3 16 257 159 0 ?214 251 262 258 0 0 3 30 2
58 160 0 257 264 253 0 +-9.99200722162641E-19 -.0085 0 0 0 -1 29 259 189 0 215 2
60 254 -1.04094977927525E-18 -.0085 0 29 260 190 0 218 271 259 -6.12323399573675
E-19 -.00499999999999999 -.0885 18 261 191 0 222 256 268 294 ?3 16 262 163 0 ?22
2 257 269 264 0 0 3 51 263 164 0 515 297 252 0 --.01 -.00600076599999998 -.08049
9545 -1 1.22464679914735E-16 0 .0016 -1.49975978266186E-32 -1.22464679914735E-16
 1 31 264 165 0 262 270 258 0 +-7.34881887433224E-19 -.00600076599999998 -.08049
9545 -1 1.22464679914735E-16 0 -1.49975978266186E-32 -1.22464679914735E-16 1 .00
16 17 265 0 223 265 265 295 587 296 0 587 +15 266 195 0 299 95 0 17 267 0 96 300
 224 301 615 302 0 606 -18 268 198 0 224 261 287 309 ?3 16 269 167 0 ?613 262 28
3 270 0 0 3 30 270 168 0 269 284 264 0 +-.002 -.004 -.0990224381597442 -1.480273
92093279E-16 -.999984161807874 -.00562815541755965 29 271 199 0 225 272 260 -.00
2 -.01 -.0990562076270969 29 272 200 0 232 285 271 -.00500000000000001 1.2388241
0148225E-18 -.0934 81 1 273 175 23 240 275 0 310 236 274 83 3 274 .5647058823529
41 .564705882352941 .564705882352941 81 1 275 176 26 240 0 273 312 238 276 83 1
 276 0 14 277 201 310 ?314 240 315 16 234 +0 0 314 240 18 15 278 204 0 316 240 3
17 17 279 0 241 318 352 319 539 320 0 507 +15 280 208 0 323 206 0 17 281 0 243 2
81 281 324 458 325 0 458 +17 282 0 177 327 244 105 104 137 0 366 +16 283 179 0 ?
461 269 288 284 0 0 3 30 284 180 0 283 289 270 0 +-.0085 -.000799999999999998 0
 -1 1.48029736616688E-16 0 29 285 211 0 245 290 272 -.01 -.000799999999999998 0
 17 286 0 150 328 249 329 518 330 0 493 +18 287 214 0 249 268 295 332 ?3 16 288
 182 0 ?249 283 291 289 0 0 3 30 289 183 0 288 292 284 0 +-.002 -.01 0 1 -5.9211
8946466751E-15 0 29 290 215 0 250 293 285 -.002 -.01 0 16 291 186 0 ?255 288 296
 292 0 0 3 30 292 187 0 291 298 289 0 +-1.04094977927525E-18 -.0085 -.0990477652
602587 1.22462740295606E-16 .999984161807874 .00562815541755965 29 293 216 0 256
 294 290 -1.02007525071895E-18 -.0085 -.0990477652602587 29 294 217 0 261 309 29
3 -7.34881887433224E-19 -.00600076599999998 -.078899545 18 295 218 0 265 287 301
 333 ?3 16 296 192 0 ?265 291 302 298 0 0 3 51 297 193 0 547 321 263 533 --.01 -
.005 -.0083 -1 1.22464679914735E-16 0 .0016 -1.49975978266186E-32 -1.22464679914
735E-16 1 31 298 194 0 296 303 292 0 +-6.12323399573676E-19 -.005 -.0083 -1 1.22
464679914735E-16 0 -1.49975978266186E-32 -1.22464679914735E-16 1 .0016 17 299 0
 266 299 299 334 595 335 0 595 +17 300 0 96 338 267 339 606 340 0 459 -18 301 22
4 0 267 295 319 342 ?3 16 302 196 0 ?615 296 320 303 0 0 3 134 255 303 197 0 302
 322 298 0 +304 305 136 255 304 3 4 4 2 1 FFT1 306 307 308 135 255 305 2 0 45 25
5 16 306 -.004 -.002 -.0990111816706267 1 -.00227614237491539 -.0016094757082487
3 -.0796780458719378 .804737854124365 -.00160947570824873 -.00227614237491539 -.
0796817980349769 .804737854124365 -.002 -.004 -.0990224381597442 1 127 255 2 307
 4 4 128 255 2 308 3.14159265358979 4.71238898038469 29 309 225 0 268 332 294 -.
002 -.004 -.0990224381597442 81 1 310 202 23 277 312 0 343 273 311 83 3 311 .564
705882352941 .564705882352941 .564705882352941 81 1 312 203 26 277 0 310 345 275
 313 83 1 313 0 14 314 226 343 ?347 277 348 16 247 -0 0 347 277 18 15 315 229 0
 349 277 350 17 316 0 278 316 316 196 166 197 0 0 -15 317 230 0 351 240 0 17 318
 0 241 352 279 353 507 354 0 485 +18 319 233 0 279 301 324 356 ?3 16 320 205 0 ?
279 302 325 322 0 0 3 50 321 206 0 347 336 297 0 +-.01 -.002 0 4.44089209850063E
-16 1 0 1 -4.44089209850063E-16 0 31 322 207 0 320 326 303 0 +-.005 -.002 -.0034
 -4.44089209850063E-16 -1 0 .625000000000002 -2.7755575615629E-16 .7806247497997
98 .0016 17 323 0 280 323 323 162 133 163 0 0 -18 324 234 0 281 319 329 357 ?3 1
6 325 209 0 ?281 320 330 326 0 0 3 31 326 210 0 325 331 322 0 +-.006000532000000
01 -.002 -.0153 -4.44089209850063E-16 -1 0 6.12323399573677E-17 -2.7192621468937
8E-32 1 .0016 17 327 0 177 208 282 358 366 359 0 338 +17 328 0 150 361 286 215 5
51 362 0 517 +18 329 239 0 286 324 334 364 ?3 16 330 212 0 ?286 325 335 331 0 0
 3 30 331 213 0 330 337 326 0 +-.000800000000000001 -.01 0 1.48029736616687E-16
 1 0 29 332 240 0 287 333 309 -.000800000000000001 -.01 0 29 333 241 0 295 342 3
32 -6.12323399573676E-19 -.005 -.0067 18 334 242 0 299 329 339 365 ?3 16 335 219
 0 ?299 330 340 337 0 0 3 51 336 220 0 567 0 321 0 --.01 -.00600076599999999 -.0
15298575 -1 1.22464679914735E-16 0 .0016 -1.49975978266186E-32 -1.22464679914735
E-16 1 31 337 221 0 335 341 331 0 +-7.34881887433225E-19 -.00600076599999999 -.0
15298575 -1 1.22464679914735E-16 0 -1.49975978266186E-32 -1.22464679914735E-16 1
 .0016 17 338 0 96 366 300 358 459 367 0 430 -18 339 245 0 300 334 353 369 ?3 16
 340 222 0 ?606 335 354 341 0 0 3 30 341 223 0 340 355 337 0 +-.01 -.002 -.09901
11816706267 1 -4.44089209850062E-16 0 29 342 246 0 301 356 333 -.004 -.002 -.099
0111816706266 81 1 343 227 23 314 345 0 370 310 344 83 3 344 .564705882352941 .5
64705882352941 .564705882352941 81 1 345 228 26 314 0 343 372 312 346 83 1 346 0
 14 347 247 370 ?374 314 375 16 321 -0 0 374 314 18 15 348 250 0 376 314 0 17 34
9 0 315 377 409 378 457 379 0 425 +15 350 253 0 381 277 0 17 351 0 317 351 351 3
82 428 383 0 428 +17 352 0 241 279 318 385 593 386 0 539 +18 353 258 0 318 339 3
58 393 ?3 16 354 231 0 ?318 340 359 355 0 0 3 31 355 232 0 354 360 341 0 +-.005
 -.002 -.0034 -4.44089209850063E-16 -1 0 0 0 1 .0016 29 356 259 0 319 357 342 -.
005 -.00199999999999999 -.0018 29 357 260 0 324 364 356 -.00600053200000001 -.00
199999999999999 -.0137 18 358 261 0 327 353 378 394 ?3 16 359 235 0 ?327 354 362
 360 0 0 3 30 360 236 0 359 363 355 0 +-.0085 -.000799999999999998 -.09900442777
71561 -1 1.48029736616688E-16 0 17 361 0 150 395 328 82 179 216 0 0 +16 362 237
 0 ?328 359 367 363 0 0 3 30 363 238 0 362 368 360 0 +-.000800000000000001 -.008
5 0 1 2.22044604925031E-15 0 29 364 262 0 329 365 357 -.000800000000000001 -.008
5 0 29 365 263 0 334 369 364 -7.34881887433225E-19 -.00600076599999999 -.0136985
75 17 366 0 96 396 338 105 327 359 0 0 -16 367 243 0 ?459 362 379 368 0 0 3 30 3
68 244 0 367 380 363 0 +-.01 -.000799999999999999 -.0990044277771561 0 -.9999841
61807874 -.00562815541755728 29 369 264 0 339 393 365 -.01 -.002 -.0990111816706
267 81 1 370 248 23 347 372 0 397 343 371 83 3 371 .564705882352941 .56470588235
2941 .564705882352941 81 1 372 249 26 347 0 370 399 345 373 83 1 373 0 14 374 26
5 397 ?401 347 402 16 212 -0 0 401 347 18 15 375 268 0 403 347 404 17 376 0 348
 405 459 406 594 407 0 486 -17 377 0 315 409 349 410 425 411 0 403 +18 378 273 0
 349 358 382 413 ?3 16 379 251 0 ?349 367 383 380 0 0 3 31 380 252 0 379 384 368
 0 +-.00500000000000001 -.002 -.095 -4.44089209850063E-16 -1 0 .624999999999848
 -2.77555756156222E-16 .780624749799922 .0016 17 381 0 350 381 381 232 200 233 0
 0 -18 382 274 0 351 378 385 414 ?3 16 383 254 0 ?351 379 386 384 0 0 3 31 384 2
55 0 383 387 380 0 +-.00600053200000001 -.002 -.08050097 -4.44089209850063E-16 -
1 0 6.12323399573677E-17 -2.71926214689378E-32 1 .0016 18 385 275 0 352 382 406
 415 ?3 16 386 256 0 ?352 383 407 387 0 0 3 38 12 CCCCCCCCCCCA17 intersection_da
ta204 0 Z387 257 0 386 408 384 0 +212 164 390 391 392 0 141 255 388 387 388 388
 164 141 389 387 438 534 212 40 255 10 390 0 1 10 1.55303315155619E-5 .283056861
930407 ??-.00400000000022276 -.002 -.00464899960031464 -.00375779866764135 -.002
01471953745077 -.00440843237310377 -.00362848341759222 -.00203480906041794 -.004
22397952903694 -.00347351826339879 -.0020705397176956 -.00387943039961223 -.0034
0073194334014 -.0020918915659052 -.00344839093878545 -.00343040632037295 -.00208
28242020864 -.00308955567173763 -.00353916179011121 -.00205381703216254 -.002747
35022823341 -.0037728385246535 -.00201294246074779 -.00237331859177522 -.0039200
1153280081 -.0020016001788281 -.00221948108401085 -.00400000000000179 -.002 -.00
215100040031521 41 3 CI8 term_use0 0 1 cCZ1 391 L?-.00400000000022276 -.002 -.00
464899960031464 41 1 392 L?-.00400000000000179 -.002 -.00215100040031521 29 393
 276 0 353 394 369 -.004 -.002 -.00464899960059288 29 394 277 0 358 413 393 -.01
 -.000799999999999998 -.0990044277771561 17 395 0 150 416 361 63 62 83 0 0 +17 3
96 0 96 417 366 50 80 106 0 0 -81 1 397 266 23 374 399 0 418 370 398 83 3 398 .5
64705882352941 .564705882352941 .564705882352941 81 1 399 267 26 374 0 397 420 3
72 400 83 1 400 0 14 401 278 418 ?422 374 423 16 252 -0 0 422 374 18 15 402 281
 0 424 374 0 17 403 0 375 425 606 410 614 426 0 611 -15 404 284 0 428 347 429 17
 405 0 348 430 376 245 486 431 0 461 -18 406 287 0 376 385 410 433 ?3 16 407 269
 0 ?594 386 411 408 0 0 3 30 408 270 0 407 412 387 0 +-.01 -.002 0 0 0 -1 17 409
 0 315 349 377 434 611 435 0 457 +18 410 290 0 377 406 434 442 ?3 16 411 271 0 ?
377 407 426 412 0 0 3 31 412 272 0 411 427 408 0 +-.00500000000000001 -.002 -.09
5 -4.44089209850063E-16 -1 0 0 0 1 .0016 29 413 291 0 378 414 394 -.005000000000
00001 -.00199999999999999 -.0934 29 414 292 0 382 415 413 -.00600053200000001 -.
00199999999999999 -.07890097 29 415 293 0 385 433 414 -.004 -.002 -.002151000400
31297 17 416 0 150 443 395 99 98 126 0 0 +17 417 0 96 444 396 87 40 51 0 0 +81 1
 418 279 23 401 420 0 445 397 419 83 3 419 .564705882352941 .564705882352941 .56
4705882352941 81 1 420 280 26 401 0 418 447 399 421 83 1 421 0 14 422 294 445 ?4
49 401 450 16 227 -0 0 449 401 18 15 423 297 0 451 401 452 17 424 0 402 453 615
 454 610 455 0 571 -17 425 0 375 457 403 378 377 411 0 0 -16 426 282 0 ?614 411
 431 427 0 0 3 30 427 283 0 426 432 412 0 +-.004 -.002 -.0962489996005929 0 0 -1
 17 428 0 404 428 428 382 351 383 0 0 -15 429 300 0 458 347 0 17 430 0 348 459 4
05 358 208 246 0 0 +16 431 285 0 ?486 426 435 432 0 0 3 30 432 286 0 431 436 427
 0 +-.01 -.000799999999999998 0 0 -1 0 29 433 301 0 406 442 415 -.01 -.002 0 18
 434 302 0 409 410 454 460 ?3 16 435 288 0 ?409 431 455 436 0 0 3 38 436 289 0 4
35 456 432 0 +212 234 439 440 441 0 141 437 436 437 437 234 141 438 436 480 389
 212 40 10 439 0 1 10 1.55303315156828E-5 .283056861931524 ??-.00400000000022276
 -.002 -.0962489996003146 -.00375779866764164 -.00201471953745073 -.096008432373
1041 -.00362848341759267 -.00203480906041786 -.0958239795290377 -.00347351826339
933 -.00207053971769546 -.0954794303996139 -.00340073194334014 -.002091891565905
2 -.0950483909387854 -.00343040632037295 -.0020828242020864 -.0946895556717376 -
.00353916179011121 -.00205381703216254 -.0943473502282334 -.00377283852465349 -.
00201294246074779 -.0939733185917752 -.00392001153280081 -.0020016001788281 -.09
38194810840109 -.00400000000000179 -.002 -.0937510004003152 41 1 440 L?-.0040000
0000022276 -.002 -.0962489996003146 41 1 441 L?-.00400000000000179 -.002 -.09375
10004003152 29 442 303 0 410 460 433 -.004 -.002 -.0962489996005929 17 443 0 150
 461 416 136 135 169 0 0 +17 444 0 96 462 417 109 108 142 0 0 -81 1 445 295 23 4
22 447 0 463 418 446 83 3 446 .564705882352941 .564705882352941 .564705882352941
 81 1 447 296 26 422 0 445 465 420 448 83 1 448 0 14 449 304 463 ?467 422 468 16
 185 -0 0 467 422 18 15 450 307 0 469 422 0 17 451 0 423 470 613 250 521 471 0 4
94 -15 452 310 0 473 401 474 17 453 0 402 475 424 476 571 477 0 574 +18 454 313
 0 424 434 476 484 ?3 16 455 298 0 ?610 435 471 456 0 0 3 30 456 299 0 455 472 4
36 0 +-.002 -.004 -.0913489995997005 0 0 -1 17 457 0 375 485 425 434 349 379 0 6
05 -17 458 0 429 458 458 324 281 325 0 0 -17 459 0 348 376 430 339 338 367 0 594
 +29 460 314 0 434 484 442 -.004 -.002 -.093751000400313 17 461 0 150 486 443 24
5 244 283 0 0 +17 462 0 96 121 444 256 255 291 0 591 -81 1 463 305 23 449 465 0
 487 445 464 83 3 464 .564705882352941 .564705882352941 .564705882352941 81 1 46
5 306 26 449 0 463 489 447 466 83 1 466 0 14 467 315 487 ?491 449 492 16 156 -0
 0 491 449 18 15 468 318 0 493 449 0 17 469 0 450 494 553 287 552 495 0 518 -17
 470 0 423 497 451 210 209 251 0 530 -16 471 308 0 ?521 455 477 472 0 0 3 30 472
 309 0 471 478 456 0 +-.002 -.01 0 0 0 -1 17 473 0 452 473 473 498 589 499 0 589
 -15 474 323 0 501 401 0 17 475 0 402 502 453 503 574 504 0 554 -18 476 326 0 45
3 454 498 506 ?3 16 477 311 0 ?453 471 495 478 0 0 3 38 478 312 0 477 496 472 0
 +220 212 481 482 483 0 141 479 478 479 479 220 141 480 478 534 438 212 40 10 48
1 0 1 10 1.60984684817673E-5 .287975814362525 ??-.002 -.00400000000000507 -.0913
489995996941 -.00201476050601231 -.00375746309247114 -.0911080188656151 -.002031
34303301845 -.00364731069429997 -.0909545359221509 -.00206145931681547 -.0035080
040450996 -.0906778824020172 -.00208624079700413 -.00341903036830954 -.090346038
6629747 -.00209176234701187 -.00340114353999248 -.0900395184295751 -.00206885272
895033 -.00347974024039821 -.089601191155142 -.00202653173793779 -.0036753108889
8873 -.0892026713198411 -.00200589271610877 -.00384658505683345 -.08899111137652
29 -.002 -.00400000000007177 -.0888510004001157 41 1 482 L?-.002 -.0040000000000
0507 -.0913489995996941 41 1 483 L?-.002 -.00400000000007177 -.0888510004001157
 29 484 327 0 454 506 460 -.002 -.004 -.0913489995997005 17 485 0 375 507 457 35
3 605 508 0 593 -17 486 0 150 510 461 406 405 431 0 579 +81 1 487 316 23 467 489
 0 511 463 488 83 3 488 .564705882352941 .564705882352941 .564705882352941 81 1
 489 317 26 467 0 487 513 465 490 83 1 490 0 14 491 330 511 ?515 467 516 16 220
 +0 0 515 467 18 15 492 333 0 517 467 0 17 493 0 468 518 573 329 572 519 0 551 -
17 494 0 450 521 469 250 249 288 0 0 -16 495 319 0 ?552 477 499 496 0 0 3 30 496
 320 0 495 500 478 0 +-.000800000000000001 -.01 0 0 0 -1 17 497 0 423 522 470 52
3 530 524 0 502 +18 498 338 0 473 476 503 526 ?3 16 499 321 0 ?589 495 504 500 0
 0 3 31 500 322 0 499 505 496 0 +-.002 -.00600076599999998 -.080499545 -1 1.4802
9736616688E-16 0 -1.81284143126252E-32 -1.22464679914735E-16 1 .0016 17 501 0 47
4 501 501 527 607 528 0 607 -17 502 0 402 530 475 523 597 531 0 612 +18 503 343
 0 475 498 523 538 ?3 16 504 324 0 ?574 499 508 505 0 0 3 30 505 325 0 504 509 5
00 0 +-.002 -.004 -.00954899959970048 0 0 -1 29 506 344 0 476 526 484 -.002 -.00
4 -.0888510004000261 17 507 0 375 539 485 319 318 354 0 0 -16 508 328 0 ?605 504
 519 509 0 0 3 30 509 329 0 508 520 505 0 +-.004 -.002 -.00464899960059288 9.968
10859159647E-18 0 -1 17 510 0 150 178 486 540 579 541 0 560 +81 1 511 331 23 491
 513 0 543 487 512 83 3 512 .564705882352941 .564705882352941 .564705882352941 8
1 1 513 332 26 491 0 511 545 489 514 83 1 514 0 14 515 347 543 ?547 491 548 16 2
63 +0 0 547 491 18 15 516 350 0 549 491 550 17 517 0 492 551 591 215 214 257 0 0
 -17 518 0 468 552 493 287 286 330 0 0 -16 519 334 0 ?572 508 524 520 0 0 3 30 5
20 335 0 519 525 509 0 +-.000800000000000001 -.0085 0 0 0 -1 17 521 0 450 553 49
4 225 451 471 0 613 +17 522 0 423 554 497 555 612 556 0 608 -18 523 353 0 497 50
3 527 558 ?3 16 524 336 0 ?497 519 528 525 0 0 3 30 525 337 0 524 529 520 0 +-.0
02 -.004 0 0 0 -1 29 526 354 0 498 538 506 -.002 -.00600076599999998 -.078899545
 18 527 355 0 501 523 540 559 ?3 16 528 339 0 ?607 524 531 529 0 0 3 31 529 340
 0 528 532 525 0 +-.002 -.00600076599999999 -.015298575 -1 1.48029736616688E-16
 0 -1.81284143126252E-32 -1.22464679914735E-16 1 .0016 17 530 0 402 560 502 210
 497 524 0 0 -16 531 341 0 ?502 528 541 532 0 0 3 38 532 342 0 531 542 529 0 +29
7 212 535 536 537 0 141 533 532 533 533 297 141 534 532 389 480 212 40 10 535 0
 1 10 1.60984684817661E-5 .287975814362517 ??-.002 -.00400000000000507 -.0095489
9959969414 -.00201476050601235 -.00375746309247082 -.00930801886561473 -.0020313
4303301854 -.00364731069429944 -.00915453592215004 -.00206145931681565 -.0035080
0404509889 -.00887788240201536 -.00208624079700413 -.00341903036830955 -.0085460
3866297473 -.00209176234701187 -.00340114353999249 -.00823951842957505 -.0020688
5272895032 -.00347974024039822 -.00780119115514195 -.00202653173793779 -.0036753
1088898876 -.00740267131984109 -.00200589271610877 -.00384658505683344 -.0071911
1137652296 -.002 -.00400000000007177 -.00705100040011576 41 1 536 L?-.002 -.0040
0000000000507 -.00954899959969414 41 1 537 L?-.002 -.00400000000007177 -.0070510
0040011576 29 538 356 0 503 558 526 -.002 -.004 -.00954899959970048 17 539 0 375
 561 507 385 279 320 0 578 -18 540 357 0 510 527 555 562 ?3 16 541 345 0 ?510 53
1 556 542 0 0 3 30 542 346 0 541 557 532 0 +-.01 -.002 0 1 -4.44089209850063E-16
 0 81 1 543 348 23 515 545 0 563 511 544 83 3 544 .564705882352941 .564705882352
941 .564705882352941 81 1 545 349 26 515 0 543 565 513 546 83 1 546 0 14 547 358
 563 ?567 515 568 16 297 +0 0 567 515 18 15 548 361 0 569 515 570 17 549 0 516 5
49 549 218 180 219 0 0 -15 550 362 0 571 491 0 17 551 0 492 572 517 329 328 362
 0 0 -17 552 0 468 573 518 183 469 495 0 553 +17 553 0 450 469 521 183 182 226 0
 0 +17 554 0 423 574 522 503 608 575 0 597 -18 555 365 0 522 540 599 577 ?3 16 5
56 351 0 ?612 541 575 557 0 0 3 31 557 352 0 556 576 542 0 +-.002 -.005 -.0083 -
1 1.48029736616688E-16 0 0 0 1 .0016 29 558 366 0 523 559 538 -.002 -.004 -.0070
5100040002612 29 559 367 0 527 562 558 -.002 -.00600076599999999 -.013698575 17
 560 0 402 578 530 540 178 211 0 561 -17 561 0 375 579 539 540 578 580 0 0 -29 5
62 370 0 540 577 559 -.004 -.002 0 81 1 563 359 23 547 565 0 582 543 564 83 3 56
4 .564705882352941 .564705882352941 .564705882352941 81 1 565 360 26 547 0 563 5
84 545 566 83 1 566 0 14 567 371 582 ?0 547 586 16 336 +0 0 0 547 18 15 568 374
 0 587 547 588 17 569 0 548 569 569 261 222 262 0 0 -15 570 375 0 589 515 0 17 5
71 0 550 590 598 454 453 477 0 602 -17 572 0 492 591 551 154 493 519 0 573 +17 5
73 0 468 493 552 154 153 184 0 0 +17 574 0 423 592 554 476 475 504 0 598 +16 575
 363 0 ?608 556 580 576 0 0 3 31 576 364 0 575 581 557 0 +-.002 -.005 -.0083 -1
 1.48029736616688E-16 0 9.25185853854298E-17 .625 -.7806247497998 .0016 29 577 3
76 0 555 609 562 -.002 -.005 -.0067 17 578 0 402 593 560 385 561 580 0 0 +17 579
 0 375 594 561 406 510 541 0 0 -16 580 368 0 ?578 575 600 581 0 0 3 30 581 369 0
 580 601 576 0 +-.004 -.002 0 0 0 -1 81 1 582 372 23 567 584 0 0 563 583 83 3 58
3 .564705882352941 .564705882352941 .564705882352941 81 1 584 373 26 567 0 582 0
 565 585 83 1 585 0 15 586 377 0 595 567 596 17 587 0 568 587 587 295 265 296 0
 0 -15 588 378 0 597 547 0 17 589 0 570 589 589 498 473 499 0 0 +17 590 0 550 59
8 571 599 602 600 0 592 +17 591 0 492 517 572 256 121 155 0 0 +17 592 0 423 602
 574 599 598 603 0 0 -17 593 0 402 605 578 353 352 386 0 0 -17 594 0 375 606 579
 339 376 407 0 0 +17 595 0 586 595 595 334 299 335 0 0 -15 596 383 0 607 567 0 1
7 597 0 588 608 612 503 502 531 0 0 -17 598 0 550 571 590 476 592 603 0 0 +18 59
9 384 0 590 555 0 609 ?3 16 600 379 0 ?590 580 603 601 0 0 3 31 601 380 0 600 60
4 581 0 +-.002 -.00499999999999999 -.0901 -1 1.48029736616688E-16 0 9.2518585385
4287E-17 .624999999999993 -.780624749799805 .0016 17 602 0 423 610 592 454 590 6
00 0 0 -16 603 381 0 ?598 600 0 604 0 0 3 31 604 382 0 603 0 601 0 +-.002 -.0049
9999999999999 -.0901 -1 1.48029736616688E-16 0 0 0 1 .0016 17 605 0 402 611 593
 434 485 508 0 0 +17 606 0 375 403 594 301 300 340 0 614 +17 607 0 596 607 607 5
27 501 528 0 0 +17 608 0 588 612 597 555 554 575 0 0 +29 609 385 0 599 0 577 -.0
02 -.00499999999999999 -.0885 17 610 0 423 613 602 268 424 455 0 615 +17 611 0 4
02 614 605 410 409 435 0 0 -17 612 0 588 597 608 523 522 556 0 0 +17 613 0 423 4
51 610 225 224 269 0 0 +17 614 0 402 615 611 301 403 426 0 0 +17 615 0 402 424 6
14 268 267 302 0 0 +1 0 